# xmcd
#
# Track frame offsets:
#	150
#	18352
#	35089
#	53791
#	68188
#	88187
#	103496
#	117387
#	131194
#	147040
#	167977
#	178597
#	196153
#	211550
#
# Disc length: 3084 seconds
#
# Revision: 1
# Processed by: cddbd v1.5.2PL0 Copyright (c) Steve Scherf et al.
# Submitted via: audiograbber 1.83.01
#
DISCID=ce0c0a0e
DTITLE=Dwight Yoakam - Live From Austin TX
DYEAR=2005
DGENRE=Country
TTITLE0=Guitars, Cadillacs
TTITLE1=Smoke Along The Track
TTITLE2=What I Don't Know
TTITLE3=Home Of The Blues
TTITLE4=1,000 Miles
TTITLE5=Please, Please Baby
TTITLE6=Little Ways
TTITLE7=Honky Tonk Man
TTITLE8=Streets Of Bakersfield
TTITLE9=Buenas Noches From A Lonely Room (She Wore Red Dresses)
TTITLE10=Always Late With Your Kisses
TTITLE11=Little Sister
TTITLE12=I Sang Dixie
TTITLE13=This Drinkin' Will Kill Me
EXTD=
EXTT0=
EXTT1=
EXTT2=
EXTT3=
EXTT4=
EXTT5=
EXTT6=
EXTT7=
EXTT8=
EXTT9=
EXTT10=
EXTT11=
EXTT12=
EXTT13=
PLAYORDER=
